<?xml version="1.0" ?><svg id="outline" viewBox="0 0 340 340" xmlns="http://www.w3.org/2000/svg"><title/><path d="M334.309,108.694a4,4,0,0,0-4-4H325.3V92.937a4,4,0,0,0-8,0v11.757h-12.01V85.084c4.67,1.748,10.081,1.168,16.1-1.734,6.892-3.321,11.224-9.45,12.528-17.724a30,30,0,0,0-10-27.68,24.275,24.275,0,0,0-22.811-4.968c-7.1-3.953-20.555-7.1-32.943,2.306a23.809,23.809,0,0,0-10.129-9.021c-5.96-2.68-12.85-2.536-20.5.424-3.585-1.215-12.275-3.4-20.607.372-6.213,2.815-10.809,8.219-13.681,16.081-3.408,1.329-9.213,4.949-11.526,14.526a20.35,20.35,0,0,0,5.225,19.228c.358.354.732.682,1.111,1a28.3,28.3,0,0,1-13.008-3.144,4.007,4.007,0,0,0-2.8-.437c-10.227,2.148-14.345-.313-17.271-3.291-3.353-3.413-3.69-6.58-3.145-11.589,1.583-14.554,12.39-15.172,13.584-15.195a4,4,0,0,0,3.711-2.516c2.76-6.914,12.4-7.692,12.478-7.7l.154-.013a25.842,25.842,0,0,1,6.449.1,4,4,0,0,0,1.163-7.916A34.171,34.171,0,0,0,191,26.046c-1.276.1-12.912,1.248-18.184,10.405-6.944,1.087-17.241,6.564-18.933,22.116-.6,5.477-.72,11.841,5.392,18.062A20.916,20.916,0,0,0,174.082,83.1v19.85a4,4,0,0,0,8,0V82.485c.138-.024.271-.042.41-.067a37.308,37.308,0,0,0,12.3,3.407v17.122a4,4,0,0,0,8,0V85.4a23.512,23.512,0,0,0,8.706-3.745c.489-.079.978-.172,1.465-.3.726-.186,1.461-.407,2.2-.65V95.7a4,4,0,0,0,8,0V83.311A34.835,34.835,0,0,0,232.4,87.07v17.624h-2.285a22.448,22.448,0,0,0-21.739,16.972,25.644,25.644,0,0,0-18.395-7.767H128.591a22.389,22.389,0,0,0-18.091-9.2h-5.321V90.383a37.925,37.925,0,0,0,10.157.052v8.231a4,4,0,0,0,8,0V88.7c17.481-5.662,17.2-20.471,16.179-26.832-.991-6.2-4.5-11.471-9.395-14.1q-.531-.285-1.076-.528c-.352-7.936-4.019-19.376-16.527-20.795-1.92-.387-13.385-2.35-22.159,4.086a29.339,29.339,0,0,0-30.249,1.154A22.184,22.184,0,0,0,37.3,27.576C34.184,27.033,26.5,26.3,20.54,30.77c-4.072,3.057-6.447,7.758-7.079,14C8.934,47.458,3.882,54.158,6.33,67.04A15.3,15.3,0,0,0,12,77.787c4.121,3.225,9.868,4.218,17.106,2.964a21.911,21.911,0,0,0,5.833,3.636v20.307H24.58V88.559a4,4,0,0,0-8,0v16.135H10.309a4,4,0,1,0,0,8H110.5a14.427,14.427,0,0,1,14.41,14.41V246.457a21.656,21.656,0,0,0-14.143,15.089H10.309a4,4,0,0,0,0,8H139.041a4,4,0,0,0,0-8H119.217c1.565-3.614,5.4-8.3,14.8-8.676a4.03,4.03,0,0,0,3.826-3.662,15.667,15.667,0,0,1,5.347-9.772c3.768-3.037,9.26-4.137,16.325-3.267h.007l.008,0a7.166,7.166,0,0,1,3.93,2.418,4,4,0,0,0,6.146-5.121,15.118,15.118,0,0,0-3.912-3.334c1.6-1.761,4.531-3.7,9.821-4.152a15.2,15.2,0,0,1,11.249,3.68,13.975,13.975,0,0,1,4.838,9.916q.022.469.022.958a4.005,4.005,0,0,0,4.992,3.875,36.19,36.19,0,0,1,14.175-.31c.066.016.131.032.2.045a18.874,18.874,0,0,1,7.648,3.366c3.837,2.951,6.128,7.665,6.845,14.034H184.289a4,4,0,0,0,0,8h146.02a4,4,0,0,0,0-8H233.526c-.827-9.07-4.2-15.924-10.058-20.408a25.564,25.564,0,0,0-7.759-4V127.1a14.426,14.426,0,0,1,14.409-14.41H330.309A4,4,0,0,0,334.309,108.694Zm-260.375-4H42.942V86.23a27.979,27.979,0,0,0,13.082-2.679V94.2a4,4,0,0,0,8,0V89.471a17.594,17.594,0,0,0,7.317,1.593,18.951,18.951,0,0,0,2.593-.188ZM74.2,82.689a10.656,10.656,0,0,1-10.847-3.356,3.97,3.97,0,0,0-.615-.7,13.774,13.774,0,0,1-1.5-2.229,4,4,0,0,0-5.6-1.645C49.264,78.5,44.217,78.773,40.552,77.9a3.96,3.96,0,0,0-1.021-.284,13.777,13.777,0,0,1-6.03-3.768,4,4,0,0,0-3.952-1.338c-5.688,1.286-10.028.951-12.548-.967a7.355,7.355,0,0,1-2.693-5.073,3.917,3.917,0,0,0-.074-.692c-1.176-5.963-.334-9.518.9-11.619a11.19,11.19,0,0,0,8.048,5.672A4,4,0,0,0,24.6,51.955c-2.959-.532-3.262-3.7-3.291-4.5.138-4.9,1.485-8.356,4.01-10.268,4.367-3.3,11.28-1.6,11.332-1.587a4.014,4.014,0,0,0,2.59-.189,14.2,14.2,0,0,1,17.2,3.957,4,4,0,0,0,5.722.7c13.116-10.66,25.662-1.76,26.173-1.389.076.056.158.095.236.145.06.038.11.086.173.122a13.95,13.95,0,0,1,5.311,8.082,4,4,0,1,0,7.733-2.047,23.131,23.131,0,0,0-4.737-9.194c6.218-3.134,13.87-1.513,13.951-1.5a4.233,4.233,0,0,0,.477.078c10.4,1.074,9.589,14.872,9.551,15.447a4,4,0,0,0,3.194,4.213,7.8,7.8,0,0,1,2.112.776c2.707,1.456,4.681,4.566,5.282,8.319,1.589,9.943-2.85,16.217-13.194,18.647-20.639,4.84-28.376-9.558-28.683-10.151a4.026,4.026,0,0,0-4.9-2.014,3.966,3.966,0,0,0-2.6,4.569C82.417,75.216,82.873,80.49,74.2,82.689Zm22.983,22.005H81.934V88.24a16.219,16.219,0,0,0,6.3-5.81,31.3,31.3,0,0,0,8.946,5.729Zm110.53,130.945a45.217,45.217,0,0,0-8.533.22,21.971,21.971,0,0,0-7.146-12.216,23.223,23.223,0,0,0-17.2-5.631c-10.521.9-15.292,6.309-17.332,9.942-8-.467-14.527,1.322-19.454,5.353a21.954,21.954,0,0,0-5.133,6.088V127.1a22.337,22.337,0,0,0-.617-5.2h57.691a17.745,17.745,0,0,1,17.725,17.725Zm44.527-130.945H240.4V88.064a23.606,23.606,0,0,0,11.833-3.726Zm45.05,0h-37.05V85.085a29.612,29.612,0,0,0,10.685,6.231,23.972,23.972,0,0,0,7.6,1.244c.077,0,.153-.006.23-.007v3.708a4,4,0,1,0,8,0V91.077a25.184,25.184,0,0,0,10.533-7.412Zm5.772-32.37a29.8,29.8,0,0,0,.81-13.718,4,4,0,0,0-7.844,1.569,22.225,22.225,0,0,1-.931,10.793c-.016.04-.02.082-.034.123-.021.06-.051.116-.069.177-.112.379-.231.748-.356,1.11a17.6,17.6,0,0,1-12.485,11.784,4.041,4.041,0,0,0-.582.138,16.043,16.043,0,0,1-8.115-.574,20.844,20.844,0,0,1-12.771-11.338,4,4,0,0,0-3.4-2.632c-.124-.011-.247-.017-.369-.017a4,4,0,0,0-3.452,1.982c-.19.325-.384.639-.583.945a15.629,15.629,0,0,1-15.815,7.216c-7.186-1.2-11.374-4.228-13.295-6.006a8.462,8.462,0,0,0-3.595-1.977h0a8.459,8.459,0,0,0-5.332.333,36.076,36.076,0,0,1-3.865,1.38,8.711,8.711,0,0,1-8.414-2.413A12.318,12.318,0,0,1,199.5,59.545c1.967-8.146,7.267-9.18,7.413-9.208a4,4,0,0,0,3.284-2.773c2.083-6.676,5.442-11.115,9.983-13.193,7.264-3.325,15.613.19,15.806.272a4,4,0,0,0,3.193.015c6.08-2.617,11.3-2.994,15.51-1.128,6.091,2.7,8.439,9.379,8.456,9.426a4.007,4.007,0,0,0,4.221,2.726,4.254,4.254,0,0,0,2.564-1.314c13.324-13.494,27.836-4.094,28.435-3.7a4,4,0,0,0,3.635.441c.183-.067.365-.133.55-.2a16.433,16.433,0,0,1,16.242,3.172,21.961,21.961,0,0,1,7.227,20.293c-.9,5.723-3.551,9.571-8.1,11.762-4.182,2.016-7.63,2.445-10.246,1.279A9.824,9.824,0,0,1,303.058,72.324Z"/><path d="M161.434,269.546a4,4,0,1,0,0-8h-2.77a4,4,0,0,0,0,8Z"/><path d="M73.958,221.2,61.544,210.029a29.137,29.137,0,0,0-19.521-7.49H10.309a4,4,0,1,0,0,8H42.023a21.15,21.15,0,0,1,14.17,5.437l19.162,17.246H28.781a4,4,0,1,0,0,8h67.69a21.206,21.206,0,0,1,11.415,3.328,4,4,0,0,0,4.3-6.748,29.2,29.2,0,0,0-15.713-4.58H87.314l-6.487-5.838a26.532,26.532,0,0,0,15.515-20.363,4,4,0,0,0-3.5-4.455,73.215,73.215,0,0,1-8.464-1.448c12.908-8.281,13.207-22.724,11.094-30.268a4.081,4.081,0,0,0-3.923-3.088,3.8,3.8,0,0,0-3.728,2.893c-.259.521-1.953,3.358-8.452,4.48a44.928,44.928,0,0,0-10.364,3.239c7.331-26.927-9.216-47.8-10.013-48.783A4,4,0,0,0,52,133.08a21.843,21.843,0,0,1-4.688,17.632,47.2,47.2,0,0,0-7.571,13.931,47.872,47.872,0,0,0-13.27-10.887,4,4,0,0,0-5.389,5.428,16.488,16.488,0,0,1,1.459,6.5A30.6,30.6,0,0,1,21.309,175.8a63.863,63.863,0,0,0-2.358,17.75,4,4,0,0,0,4,3.961h.04a4,4,0,0,0,3.961-4.039,55.888,55.888,0,0,1,2.065-15.528,39.982,39.982,0,0,0,1.567-11.387c2.915,2.729,5.666,6.186,6.758,10.017a69.589,69.589,0,0,1,.8,8.539,4,4,0,0,0,8,0,75.819,75.819,0,0,0-.853-9.525,42.049,42.049,0,0,1,8.28-19.878,30.6,30.6,0,0,0,5.372-10.032c3.858,9.415,6.75,23.913-1.182,39.778a4,4,0,0,0,5.933,5.021c.082-.059,8.256-5.944,17.042-7.46a25.745,25.745,0,0,0,7.6-2.456c-.54,5.782-3.58,13.328-14.9,16.814a4,4,0,0,0-2.08,6.147c.954,1.335,4.354,4.407,15.988,6.344A17.875,17.875,0,0,1,73.958,221.2Z"/><path d="M330.6,218.316a4,4,0,0,0-4-4h-7.983a38.757,38.757,0,0,0,.862-17,4,4,0,0,0-6.192-2.467,21.119,21.119,0,0,1-6.524,3.087,37.627,37.627,0,0,0,2.931-13.779,4,4,0,0,0-4.488-3.97,34.519,34.519,0,0,0-14.687,5.529c.978-19.058-11.253-36.041-11.888-36.909a4,4,0,0,0-7.045,3.555c.163.534,3.88,13.225-6.431,25.893-6.178,7.591-8.4,14.764-9,20.3a26.885,26.885,0,0,1-5.679-14.493,4,4,0,0,0-7.557-1.736c-10.168,19.8-7.052,33.508-2.647,41.525A4,4,0,0,0,247.281,220c-3.648-6.64-4.177-14.457-1.6-23.331a34.336,34.336,0,0,0,12.942,14.712,4.01,4.01,0,0,0,5.928-4.668c-.144-.438-3.413-10.861,6.8-23.411a39.473,39.473,0,0,0,7.982-15.916c3.009,8.051,4.971,18.49.886,28.171a4,4,0,0,0,6.919,3.911,32.615,32.615,0,0,1,13.968-10.15c-.689,3.468-2.105,7.547-4.817,9.852a4,4,0,0,0,1.581,6.918,24.146,24.146,0,0,0,14.169-1.519,28.738,28.738,0,0,1-1.87,9.745h-7.308a21.789,21.789,0,0,0-15.693,6.716l-6.608,6.921H249.081a25.7,25.7,0,0,0-19.651,9.114,4,4,0,0,0,6.107,5.168,17.711,17.711,0,0,1,13.544-6.282h54.644a4,4,0,0,0,0-8h-12.1l1.334-1.4a13.76,13.76,0,0,1,9.907-4.239H326.6A4,4,0,0,0,330.6,218.316Z"/><path d="M147.556,147.169a4,4,0,0,0-4,4V213.1a4,4,0,0,0,8,0V151.169A4,4,0,0,0,147.556,147.169Z"/><path d="M168.512,191.413a4,4,0,0,0-4,4v11.126a4,4,0,0,0,8,0V195.413A4,4,0,0,0,168.512,191.413Z"/>
<path d="M168.512,173.178a4,4,0,0,0-4,4v1.747a4,4,0,0,0,8,0v-1.747A4,4,0,0,0,168.512,173.178Z"/>
<path d="M168.512,133.392a4,4,0,0,0-4,4v24.292a4,4,0,1,0,8,0V137.392A4,4,0,0,0,168.512,133.392Z"/>
<path d="M189.129,200.572a4,4,0,0,0-4,4v1.967a4,4,0,0,0,8,0v-1.967A4,4,0,0,0,189.129,200.572Z"/>
<path d="M189.129,141.842a4,4,0,0,0-4,4v39.713a4,4,0,0,0,8,0V145.842A4,4,0,0,0,189.129,141.842Z"/>
<path d="M330.309,284.6H287.1a4,4,0,0,0,0,8h43.212a4,4,0,0,0,0-8Z"/>
<path d="M263.694,292.6a4,4,0,0,0,0-8h-3.052a4,4,0,0,0,0,8Z"/>
<path d="M98.165,288.6a4,4,0,0,0,4,4H236.4a4,4,0,1,0,0-8H102.165A4,4,0,0,0,98.165,288.6Z"/>
<path d="M81.561,292.6a4,4,0,1,0,0-8H79.912a4,4,0,0,0,0,8Z"/>
<path d="M10.309,292.6H57.66a4,4,0,0,0,0-8H10.309a4,4,0,1,0,0,8Z"/>
<path d="M330.309,307.645H178.082a4,4,0,0,0,0,8H330.309a4,4,0,0,0,0-8Z"/>
<path d="M156.347,307.645h-1.6a4,4,0,0,0,0,8h1.6a4,4,0,0,0,0-8Z"/>
<path d="M131.418,307.645H10.309a4,4,0,1,0,0,8H131.418a4,4,0,0,0,0-8Z"/>
<path d="M323.273,227.953a4,4,0,0,0,0,8h1.966a4,4,0,0,0,0-8Z"/>
</svg>
